<?xml version="1.0" standalone="no"?>
<!DOCTYPE svg PUBLIC "-//W3C//DTD SVG 20010904//EN"
 "http://www.w3.org/TR/2001/REC-SVG-20010904/DTD/svg10.dtd">
<svg version="1.0" xmlns="http://www.w3.org/2000/svg"
 width="733.000000pt" height="733.000000pt" viewBox="0 0 733.000000 733.000000"
 preserveAspectRatio="xMidYMid meet">
<metadata>
Created by potrace 1.14, written by Peter Selinger 2001-2017
</metadata>
<g transform="translate(0.000000,733.000000) scale(0.100000,-0.100000)"
fill="#000000" stroke="none">
<path d="M4959 6154 c0 -8 -4 -27 -12 -59 -1 -5 -6 -16 -10 -23 -9 -13 -19
-57 -21 -84 0 -9 -3 -15 -7 -12 -12 7 -17 -34 -5 -47 8 -9 8 -10 0 -6 -13 7
-32 -32 -36 -73 -2 -14 -6 -28 -11 -31 -4 -3 -9 -15 -12 -27 -2 -12 -7 -27
-10 -32 -4 -6 -1 -18 6 -26 9 -12 9 -13 -2 -9 -11 4 -24 -25 -53 -117 -22 -68
-40 -127 -40 -133 -1 -5 -3 -12 -6 -15 -4 -4 -73 -204 -76 -220 0 -3 -3 -12
-7 -20 -22 -57 -37 -121 -31 -131 4 -7 3 -9 -3 -6 -7 5 -86 -212 -88 -243 0
-3 -3 -9 -7 -15 -16 -26 -68 -217 -62 -228 4 -6 3 -8 -1 -4 -5 4 -14 -1 -19
-12 -11 -19 -12 -19 -48 -1 -40 19 -149 58 -237 84 -50 15 -52 15 -40 -2 13
-16 13 -16 -6 0 -11 9 -33 19 -49 22 -16 3 -31 8 -34 10 -3 3 -12 0 -20 -7
-13 -9 -14 -9 -8 1 5 8 -2 12 -23 12 -17 0 -32 0 -33 1 -2 0 -22 4 -45 8 -30
6 -41 5 -36 -3 5 -8 2 -7 -8 0 -14 12 -307 12 -359 0 -14 -3 -43 -9 -65 -12
-98 -14 -190 -41 -187 -55 3 -11 1 -11 -8 -2 -9 8 -28 5 -79 -14 -36 -14 -72
-26 -79 -27 -8 -1 -18 -9 -23 -17 -5 -8 -9 -11 -9 -7 0 4 -11 3 -24 -1 -23 -9
-24 -6 -61 112 -21 67 -41 124 -44 127 -3 3 -7 16 -9 30 -1 14 -7 27 -12 28
-6 2 -8 7 -5 12 3 5 0 21 -6 37 -7 15 -13 33 -14 39 -12 54 -51 152 -58 147
-6 -3 -7 -1 -4 4 10 16 -4 74 -16 66 -5 -3 -7 -2 -4 4 8 12 -32 143 -44 143
-4 0 -6 6 -4 13 3 6 -4 37 -16 67 -11 30 -22 64 -24 75 -11 49 -42 124 -50
117 -4 -4 -5 -2 -1 5 10 17 -4 64 -17 56 -6 -3 -7 -1 -3 5 6 11 -22 120 -34
132 -3 3 -5 10 -6 15 -3 28 -37 124 -42 121 -4 -2 -7 12 -8 31 0 22 -7 39 -18
45 -9 5 -14 14 -10 19 7 12 -27 129 -38 129 -4 0 -8 -3 -9 -7 -2 -18 -8 -44
-24 -99 -9 -32 -18 -68 -20 -79 -1 -11 -5 -27 -8 -35 -16 -38 -36 -134 -30
-143 3 -5 1 -7 -5 -4 -8 6 -17 -22 -27 -83 0 -3 -4 -11 -9 -18 -4 -7 -6 -16
-3 -18 3 -3 -1 -22 -9 -41 -9 -19 -13 -38 -10 -41 3 -3 1 -10 -4 -17 -5 -6
-11 -20 -13 -31 -2 -10 -6 -26 -9 -34 -25 -76 -26 -80 -15 -73 9 5 9 3 1 -8
-10 -12 -17 -33 -30 -84 -1 -5 -16 -59 -33 -120 -17 -60 -34 -119 -36 -130
-14 -61 -54 -205 -60 -214 -3 -6 -1 -11 4 -11 6 0 11 -5 11 -10 0 -6 -5 -9
-12 -8 -12 3 -30 -59 -23 -80 3 -7 0 -10 -5 -7 -6 3 -11 -3 -11 -14 -2 -21 -5
-37 -9 -46 -1 -3 -3 -8 -4 -12 -1 -5 -5 -13 -9 -20 -4 -7 0 -17 10 -23 17 -11
17 -11 1 -6 -17 5 -24 -14 -19 -46 0 -5 -4 -8 -11 -8 -6 0 -9 -3 -5 -6 3 -3
-1 -24 -9 -46 -7 -22 -11 -44 -8 -49 3 -5 1 -9 -4 -9 -5 0 -9 -6 -9 -12 -1 -7
-9 -40 -18 -73 -9 -33 -18 -69 -19 -80 0 -11 -4 -22 -7 -25 -5 -5 -27 -83 -65
-233 -8 -32 -11 -63 -8 -69 4 -6 3 -8 -3 -5 -9 6 -60 -168 -52 -176 2 -2 -2
-11 -10 -20 -7 -10 -11 -17 -8 -17 3 0 -1 -21 -9 -46 -7 -26 -11 -51 -7 -57 3
-5 1 -7 -4 -4 -7 4 -13 -6 -16 -26 -5 -33 -14 -70 -17 -74 -4 -5 -7 -23 -9
-44 -1 -18 -4 -19 -16 -9 -8 7 -22 10 -30 6 -8 -3 -15 -2 -15 2 0 9 -70 37
-82 34 -5 -1 -8 3 -8 8 0 6 -6 10 -14 10 -8 0 -27 5 -43 12 -15 6 -30 12 -33
13 -3 1 -12 5 -20 8 -43 19 -100 35 -100 29 0 -4 -4 -1 -9 6 -4 7 -18 14 -29
15 -12 1 -22 4 -22 8 0 4 -8 9 -17 12 -10 3 -49 17 -88 32 -94 35 -102 36
-120 18 -26 -25 -14 -56 28 -76 20 -9 47 -18 60 -20 12 -1 24 -5 27 -9 8 -10
140 -58 140 -50 0 4 4 2 8 -4 10 -14 91 -46 102 -39 4 3 10 0 12 -6 2 -6 15
-12 30 -12 14 -1 25 -5 23 -8 -2 -3 38 -20 88 -39 51 -19 93 -34 94 -35 2 -1
-6 -36 -17 -79 -11 -42 -17 -82 -14 -88 4 -6 3 -8 -3 -5 -11 7 -27 -47 -27
-90 0 -12 -4 -20 -8 -17 -4 3 -8 -2 -8 -10 0 -13 -10 -15 -57 -11 -32 3 -89 8
-128 11 -38 3 -71 7 -73 9 -2 2 -14 0 -27 -5 -13 -5 -26 -6 -29 -2 -9 9 -43
13 -236 27 -41 3 -87 7 -101 9 -29 3 -52 -10 -62 -36 -11 -31 34 -51 118 -52
41 0 75 -3 75 -6 0 -6 81 -12 177 -14 35 0 63 -3 63 -6 0 -3 11 -7 26 -8 18
-1 23 2 18 11 -6 9 -5 9 7 0 8 -7 56 -15 107 -19 75 -6 92 -10 92 -23 -1 -32
-75 -276 -85 -278 -10 -1 -166 -8 -410 -19 -71 -3 -139 -7 -150 -9 -11 -2 -24
-4 -28 -4 -5 -1 -5 -5 -2 -11 3 -5 1 -10 -4 -10 -17 0 -13 -18 9 -40 21 -21
85 -26 96 -8 3 4 13 4 23 -2 10 -5 20 -7 23 -5 3 3 76 8 164 11 87 3 185 7
216 9 l56 3 -14 -40 c-8 -23 -16 -50 -18 -62 -3 -12 -11 -43 -20 -70 -16 -51
-13 -71 7 -60 7 4 8 3 4 -2 -5 -5 -14 -9 -20 -9 -12 0 -29 -54 -22 -73 3 -7 0
-10 -5 -7 -8 5 -13 -22 -9 -51 0 -4 -3 -10 -8 -13 -7 -5 -24 -62 -49 -161 -14
-59 -64 -233 -67 -236 -2 -3 -290 -4 -639 -4 -696 0 -690 0 -655 -54 17 -25
46 -39 31 -14 -4 7 -3 8 4 4 17 -10 162 -13 162 -3 0 4 5 5 11 1 16 -9 153 -9
169 1 9 6 11 4 5 -4 -6 -10 -3 -11 14 -2 12 7 21 8 21 2 0 -11 19 -9 39 3 8 5
12 5 8 0 -7 -12 176 -12 185 1 5 7 8 7 8 0 0 -12 182 -11 201 1 8 5 9 3 4 -5
-6 -10 -3 -11 14 -2 12 7 21 8 21 2 0 -10 25 -9 36 1 3 4 18 2 32 -3 18 -7 28
-7 30 0 2 6 8 8 13 5 15 -9 149 -10 149 -1 0 4 8 4 17 -1 10 -5 164 -10 343
-11 178 -1 326 -4 329 -6 2 -2 5 -29 7 -60 5 -72 8 -90 30 -159 10 -31 22 -56
26 -56 5 0 6 -5 3 -10 -3 -5 -1 -10 5 -10 6 0 9 -4 6 -9 -3 -5 3 -20 14 -34
11 -14 20 -28 20 -32 0 -3 6 -12 13 -20 7 -7 24 -26 38 -42 47 -55 164 -132
192 -125 4 1 7 -2 7 -7 0 -9 20 -16 86 -28 84 -15 281 -3 269 18 -3 5 1 6 9 3
17 -7 147 56 140 68 -3 4 3 5 12 1 13 -5 16 -2 12 9 -4 10 -1 15 10 14 9 0 16
5 14 12 -1 8 1 11 6 8 8 -5 72 46 72 58 0 4 9 16 20 28 10 12 17 25 14 30 -3
4 0 8 6 8 13 0 55 91 71 156 10 37 9 51 -1 68 -12 19 -12 20 3 7 16 -12 17 -8
17 48 l0 61 754 2 c622 3 752 1 743 -10 -9 -12 -11 -81 -3 -122 14 -73 19 -90
28 -90 5 0 6 -4 3 -10 -3 -5 0 -20 7 -32 7 -13 12 -26 13 -29 1 -15 65 -109
75 -109 5 0 10 -6 10 -13 0 -20 98 -100 112 -91 7 5 8 3 3 -6 -6 -10 -4 -12 9
-7 10 4 15 3 11 -3 -8 -12 53 -43 71 -36 8 3 12 1 9 -4 -10 -16 106 -43 193
-45 90 -2 185 12 176 26 -3 5 1 6 9 3 19 -7 118 46 110 59 -3 6 -1 7 5 3 16
-9 64 24 58 40 -3 8 0 11 8 8 15 -6 89 74 108 117 7 16 16 29 19 29 4 0 10 7
13 16 4 10 2 13 -7 8 -6 -4 -5 1 4 12 13 15 34 59 29 59 -1 0 4 14 10 30 13
35 20 81 21 147 l0 48 426 -1 c234 0 426 1 428 3 2 2 56 1 120 -2 64 -3 119
-2 121 1 2 4 20 3 39 -1 19 -4 37 -5 39 -1 2 3 57 4 121 1 64 -3 118 -3 120
-2 2 2 72 3 155 3 122 -2 153 1 166 13 16 17 10 65 -10 67 -63 6 -1134 3
-1142 -3 -6 -5 -16 -3 -21 4 -10 13 -40 116 -50 167 -2 14 -8 28 -14 29 -5 2
-7 7 -4 11 2 4 -9 57 -26 117 -16 60 -32 120 -35 134 -3 14 -9 27 -15 28 -5 2
-7 7 -5 11 3 4 0 25 -5 47 -5 21 -12 50 -15 63 -3 14 -7 29 -10 33 -3 5 -8 24
-11 41 -3 18 -8 34 -12 37 -3 3 -8 19 -9 37 -3 31 -3 31 37 27 29 -4 41 -1 41
8 0 9 2 10 8 1 4 -7 63 -13 162 -18 85 -3 186 -8 225 -10 79 -4 105 6 105 39
0 32 -17 42 -75 45 -27 1 -58 4 -67 7 -10 3 -18 0 -18 -7 0 -8 -4 -8 -12 -2
-7 5 -49 11 -93 12 -44 1 -120 4 -170 7 -49 2 -109 5 -132 5 -41 0 -43 1 -53
42 -6 23 -20 74 -31 112 -19 67 -24 87 -33 130 -3 18 2 20 58 21 111 2 166 7
166 17 0 5 6 4 13 -2 8 -6 16 -9 18 -7 2 2 42 7 89 11 47 3 101 8 120 10 19 2
71 7 115 10 44 4 85 11 92 17 32 26 -5 80 -51 73 -27 -5 -118 -13 -231 -20
-49 -3 -106 -8 -125 -11 -19 -3 -66 -7 -104 -9 -88 -6 -179 -16 -189 -22 -4
-2 -6 -1 -5 4 5 16 -25 133 -34 133 -5 0 -7 4 -4 9 3 5 -1 30 -8 55 -17 55
-16 52 -16 72 0 8 -4 13 -8 10 -4 -2 -8 3 -8 13 0 12 17 23 58 36 32 10 55 22
51 28 -3 6 -2 7 4 4 6 -4 34 3 64 14 30 12 70 26 89 32 19 6 38 16 42 22 4 5
8 6 8 1 0 -4 11 -1 25 8 14 9 25 14 25 11 0 -3 9 -1 21 5 11 6 30 13 42 16 12
2 23 8 25 13 2 6 11 7 19 4 13 -5 15 -2 9 13 -6 15 -4 16 5 7 14 -14 102 17
133 46 21 22 15 56 -12 63 -25 7 -113 -23 -105 -35 3 -6 1 -7 -4 -4 -17 11
-88 -19 -85 -34 3 -11 1 -11 -9 -2 -12 12 -42 6 -34 -7 3 -5 -4 -6 -15 -3 -12
3 -20 0 -20 -6 0 -7 -6 -11 -12 -10 -14 2 -42 -7 -72 -23 -10 -5 -27 -11 -38
-13 -10 -2 -32 -11 -48 -19 -17 -8 -43 -17 -60 -21 -18 -4 -27 -11 -24 -17 4
-6 2 -8 -3 -5 -14 9 -72 -11 -96 -31 -16 -15 -17 -14 -11 1 3 10 1 30 -5 45
-6 15 -13 38 -15 52 -3 14 -10 41 -15 60 -5 19 -22 83 -37 142 -15 59 -30 106
-33 104 -3 -2 -6 6 -7 17 -1 21 -10 69 -15 75 -2 2 -1 0 -19 75 -7 31 -16 57
-19 57 -3 0 -7 15 -8 32 -2 18 -7 44 -12 58 -21 58 -24 66 -26 86 -2 11 -9 40
-16 65 -17 58 -16 57 -18 75 0 9 -6 12 -13 8 -6 -4 -8 -3 -4 4 8 13 -30 160
-47 181 -9 12 -9 13 0 8 9 -6 9 3 -2 33 -8 22 -14 42 -14 45 -1 10 -13 61 -18
75 -3 8 -8 24 -10 34 -2 11 -8 25 -13 31 -5 7 -7 14 -4 18 3 3 0 23 -7 44 -7
21 -14 40 -14 43 -9 44 -18 69 -24 66 -4 -3 -5 8 -3 25 3 18 0 29 -7 29 -7 0
-10 4 -7 8 7 12 -15 92 -25 92 -5 0 -6 7 -3 15 5 12 -5 57 -23 105 -3 8 -8 23
-9 32 -8 37 -87 326 -105 383 -11 33 -21 71 -24 85 -6 39 -93 351 -99 358 -3
3 -6 1 -7 -4z m-3349 -3448 c0 -2 -8 -10 -17 -17 -16 -13 -17 -12 -4 4 13 16
21 21 21 13z"/>
</g>
</svg>
